# xmcd
#
# Track frame offsets:
#	150
#	12825
#	27400
#	43775
#	58375
#	74825
#	88275
#	100925
#	112750
#	122625
#	133775
#	145925
#
# Disc length: 2186 seconds
#
# Revision: 1
# Processed by: cddbd v1.5.1PL0 Copyright (c) Steve Scherf et al.
# Submitted via: EasyCDDAExtractor 6.0.0.1
#
DISCID=b308880c
DTITLE=Rocky Tops - First Tracks
DYEAR=1989
DGENRE=Country
TTITLE0=Heartbreak Hill
TTITLE1=Cajun Moon
TTITLE2=Maria
TTITLE3=Willing
TTITLE4=Love Can't Ever Get Better
TTITLE5=Amarillo
TTITLE6=Rocky Top
TTITLE7=In The Light Of The Moon
TTITLE8=Burning Old Memories
TTITLE9=Feeling Single Seeing Double
TTITLE10=Blue Rose Of Texas
TTITLE11=Blue Bayou
EXTD=
EXTT0=
EXTT1=
EXTT2=
EXTT3=
EXTT4=
EXTT5=
EXTT6=
EXTT7=
EXTT8=
EXTT9=
EXTT10=
EXTT11=
PLAYORDER=
